<?xml version="1.0" encoding="UTF-8" standalone="no"?>
<svg
   version="1.1"
   id="Layer_1"
   x="0px"
   y="0px"
   viewBox="0 0 415.79998 415.79998"
   xml:space="preserve"
   sodipodi:docname="edmodo.svg"
   width="415.79999"
   height="415.79999"
   inkscape:version="1.1-alpha (db1a268822, 2021-01-21)"
   xmlns:inkscape="http://www.inkscape.org/namespaces/inkscape"
   xmlns:sodipodi="http://sodipodi.sourceforge.net/DTD/sodipodi-0.dtd"
   xmlns="http://www.w3.org/2000/svg"
   xmlns:svg="http://www.w3.org/2000/svg"
   xmlns:rdf="http://www.w3.org/1999/02/22-rdf-syntax-ns#"
   xmlns:cc="http://creativecommons.org/ns#"
   xmlns:dc="http://purl.org/dc/elements/1.1/"><defs
   id="defs19" /><sodipodi:namedview
   id="namedview17"
   pagecolor="#ffffff"
   bordercolor="#666666"
   borderopacity="1.0"
   objecttolerance="10.0"
   gridtolerance="10.0"
   guidetolerance="10.0"
   inkscape:pageshadow="2"
   inkscape:pageopacity="0.0"
   inkscape:pagecheckerboard="0"
   showgrid="false"
   inkscape:zoom="0.37838206"
   inkscape:cx="319.78261"
   inkscape:cy="305.24703"
   inkscape:window-width="1208"
   inkscape:window-height="656"
   inkscape:window-x="72"
   inkscape:window-y="27"
   inkscape:window-maximized="1"
   inkscape:current-layer="Layer_1" />
<style
   type="text/css"
   id="style2">
	.st0{fill:#FFCA28;}
</style>
<title
   id="title4">edmodo e</title>




<g
   id="g842"
   transform="translate(-113.30001,-99.000006)"><path
     class="st0"
     d="M 236,371.6 400.8,349.3 C 395.9,306.7 368.7,290 324,290 c -58,0 -85.2,27.2 -88,81.6 z m 202.5,112.5 c -30.7,20.2 -69.1,30.7 -113.1,30.7 -83.1,0 -131.3,-41.9 -131.3,-120.8 0,-109.6 67,-155.7 136.2,-155.7 81,0 111.7,49.6 102,141.1 L 236,387 c 2.8,44.7 30.7,73.3 90.8,73.3 36.3,0 71.9,-9.8 99.2,-24.4 z"
     id="path6" /><polygon
     class="st0"
     points="302.5,99 313.3,188.5 331.4,188.5 342.3,99 "
     id="polygon8" /><polygon
     class="st0"
     points="448.3,135.7 397.1,207.8 381.2,199.1 413.3,116.8 "
     id="polygon12" /><polygon
     class="st0"
     points="196.4,135.7 247.6,207.8 263.5,199.1 231.4,116.8 "
     id="polygon14" /></g>
<metadata
   id="metadata836"><rdf:RDF><cc:Work
       rdf:about=""><dc:title>edmodo e</dc:title></cc:Work></rdf:RDF></metadata></svg>
