<?xml version="1.0" encoding="UTF-8" standalone="no"?>
<svg
   viewBox="0 0 127.803 127.803"
   fill="#333333"
   version="1.1"
   id="svg6"
   sodipodi:docname="core.svg"
   width="127.803"
   height="127.803"
   inkscape:version="1.1-alpha (db1a268822, 2021-01-21)"
   xmlns:inkscape="http://www.inkscape.org/namespaces/inkscape"
   xmlns:sodipodi="http://sodipodi.sourceforge.net/DTD/sodipodi-0.dtd"
   xmlns="http://www.w3.org/2000/svg"
   xmlns:svg="http://www.w3.org/2000/svg">
  <defs
     id="defs10" />
  <sodipodi:namedview
     id="namedview8"
     pagecolor="#ffffff"
     bordercolor="#666666"
     borderopacity="1.0"
     objecttolerance="10.0"
     gridtolerance="10.0"
     guidetolerance="10.0"
     inkscape:pageshadow="2"
     inkscape:pageopacity="0.0"
     inkscape:pagecheckerboard="0"
     showgrid="false"
     inkscape:zoom="2.4620943"
     inkscape:cx="62.142217"
     inkscape:cy="68.843829"
     inkscape:window-width="1208"
     inkscape:window-height="656"
     inkscape:window-x="72"
     inkscape:window-y="27"
     inkscape:window-maximized="1"
     inkscape:current-layer="svg6" />
  <g
     id="g865"
     transform="translate(11.651501,-5.1221051)"
     style="fill:#ffffff">
    <path
       d="m 4.7,48.6 c 5.8,-7.9 15.5,-10.8 24.5,-13.3 4.6,-1.3 8.4,-2.1 13.3,-2.1 4.2,0 8.4,1 12.5,1.8 4.2,0.8 8.4,1.5 12.1,3.7 2.4,1.4 5.2,2.2 7.5,3.7 0.8,0.5 3.6,1.2 3.2,2.4 -0.5,1.7 -4.7,0.1 -6,0.8 -1.4,0.7 -3.3,2.1 -4.9,1.6 -1.6,-0.4 -2,-2.3 -3.7,-2.5 -2.7,-0.3 -3.2,2.6 -5.9,2.4 -2,-0.2 -4.3,-2.7 -6.4,-2.5 -1.9,0.1 -4,2.2 -5.4,3.3 -2.6,1.9 -3.8,-0.8 -6,-1.7 -1.3,-0.5 -1.9,-0.7 -3.3,-0.7 -3.7,0 -5.9,1.6 -8,4.6 0.7,-1 -4,-3.2 -4.4,-3.3 -2,-0.5 -4,-1.4 -6,-1.4 -5.1,-0.2 -8.7,0 -13.1,3.2 M 42.9,6 c -1,-1.3 -2.2,-0.8 -3.8,-0.7 -0.8,2.4 -0.1,4.4 0.4,6.4 0.5,2.2 0.9,4.5 1.3,6.6 0.4,2.2 0.6,4.5 0.7,6.9 0.1,1.2 0.1,2.5 -0.1,3.7 -0.2,1 -0.9,1.7 -1.1,2.7 2,-0.1 4.2,0 6.2,-0.1 0,-1 -0.7,-2 -0.9,-3 C 45.3,27.4 45.5,26.3 45.4,25.2 45.2,23.3 44.7,21.5 44.5,19.5 43.9,15 43.2,10.6 42.9,6 m -31,115.7 c 4.9,9 18.8,10.9 27.9,11.2 3.5,0.1 7,-0.1 10.4,-0.6 1.8,-0.2 3.6,-0.8 5.5,-1.3 3.2,-0.9 6.5,-1.9 9.6,-3.4 2.7,-1.3 6.6,-2.6 7.4,-6.1 -1.5,2.4 -13.4,1 -15.2,0.2 -1.1,-0.5 -1,-0.7 -1.9,0.2 -2.8,2.8 -7.9,3.6 -11.6,3 -3,-0.6 -7.1,-2.9 -9.5,-4.8 -0.9,-0.7 -0.5,-1.1 -1.8,-0.5 -2.9,1.4 -5,3.2 -8.3,3.7 -3.5,0.6 -6.7,-0.1 -10.6,-1.8 -1,-0.4 -1.4,-0.5 -2.4,-1.2 z"
       id="path2"
       style="fill:#ffffff" />
    <path
       d="m 45.8,123.7 c -1.2,0 -2.4,-0.2 -3.5,-0.5 -1.7,-0.5 -3.4,-1.2 -5.3,-2.4 -0.3,-0.2 -2,-1.7 -3,-2.5 l -0.4,-0.4 c -1.1,0.5 -2.1,1.2 -3.1,1.9 -2,1.4 -4.1,2.8 -6.8,2.9 -2.3,0.1 -4.7,-0.3 -7.5,-1.1 -0.2,-0.1 -0.8,-0.3 -1.7,-0.7 -1,-0.4 -2.5,-0.9 -3,-1.1 0,0 -0.2,-0.1 -0.3,-0.3 -0.1,-0.2 -0.1,-0.5 0,-0.6 1.8,-1.4 3.6,-3.1 5.3,-4.7 1.1,-1.1 2.3,-2.2 3.5,-3.2 0.4,-0.4 0.8,-0.7 1.2,-1.2 L 21.8,109 C 25,104.7 26.3,97.7 27,92.5 27.7,87.6 27.3,82.6 26.9,78.3 26.2,70.3 23.6,64.5 19.1,60.5 17,58.7 14.6,57.2 12.4,55.8 l -1,-0.6 C 9.1,53.8 6.8,52.4 4.6,50.7 4.4,50.5 4.3,50.2 4.3,49.9 c 0.4,-1.4 6.3,-3.3 6.4,-3.3 1.1,-0.2 2.2,-0.3 3.5,-0.3 1.5,0 3,0.1 4.4,0.2 3.4,0.3 5.6,1.8 7.9,3.4 0.8,0.6 1.7,1.2 2.6,1.7 l 0.1,-0.1 c 0.3,-0.4 0.5,-0.8 0.7,-1.2 0.3,-0.6 0.6,-1.3 1.2,-1.8 1.3,-1.3 2.9,-1.6 4.1,-1.8 0.5,-0.1 0.9,-0.1 1.3,-0.1 2.3,0 3.7,0.9 5.5,2.1 l 0.9,0.6 c 0.7,0.5 1.4,0.7 1.9,0.7 0.9,0 1.4,-0.6 2.1,-1.7 0.8,-1.1 1.8,-2.4 3.5,-2.6 1.8,-0.2 3.3,0.7 4.6,1.5 1,0.6 1.9,1.2 2.8,1.2 0.7,0 1.5,-0.4 2.3,-1.2 1,-1 1.9,-1.7 2.9,-1.7 0.7,0 1.4,0.4 2.3,1.2 l 0.2,0.2 c 1.8,1.7 2.3,2.2 4.5,1 1.7,-0.9 3.9,-1.5 5.7,-1.5 3.1,0 5,1.6 5.1,4.3 L 80.5,50.8 80,51 c -0.2,0.1 -0.3,0.1 -0.5,0.2 -2.5,0.8 -9.7,4.8 -10.4,5.4 -2.4,1.8 -4.7,4.2 -6.4,6.6 -6.6,9.4 -6.5,22.8 -4.3,31.5 1.1,4.5 2.6,9.8 5.3,14.8 1.2,2.2 2.6,4.2 4.1,6.1 l 0.2,0.2 c 3.7,4.4 4.5,4.6 4.7,4.8 0.1,0.1 0.2,0.2 0.3,0.4 0,0.3 -0.3,0.5 -0.5,0.6 -0.3,0.2 -0.7,0.3 -1,0.4 -0.3,0.1 -0.6,0.1 -1,0.2 -0.4,0.1 -0.8,0.1 -1.1,0.1 -1.7,0.1 -3.3,0.2 -5,0 -1,-0.1 -2.1,-0.2 -3.1,-0.4 -1.2,-0.2 -3.8,-0.8 -5.3,-1.6 l -1,0.5 c -1.5,1 -4.2,2.2 -4.6,2.3 -1.6,0.3 -3.1,0.6 -4.6,0.6 z m -11.5,-6.5 c 0.9,0.8 3,2.5 3.2,2.7 1.8,1.1 3.4,1.9 5,2.3 2.4,0.6 5,0.5 7.4,-0.3 0.3,-0.1 3.2,-1.3 4.5,-2.2 l -0.3,-0.6 c -1.1,-2.2 -2.6,-5.1 -3.3,-7.3 -0.2,-0.5 -0.3,-0.9 -0.5,-1.3 -0.8,-2.3 -1.5,-4.2 -1.5,-7.4 v -2.8 l 6.5,17.4 c 0.2,0.3 0.3,0.7 0.4,1 0.5,0.7 3.2,1.5 5.5,1.9 3.8,0.7 7.3,0.7 10,0 -0.8,-0.7 -2.1,-2 -4.2,-4.5 l -0.2,-0.2 c -1.6,-1.9 -3,-4 -4.2,-6.2 -2.7,-5 -4.2,-10.4 -5.4,-15 -2.2,-8.8 -2.3,-22.6 4.5,-32.3 1.8,-2.5 4.1,-5 6.6,-6.8 0.6,-0.5 8.7,-4.9 11.1,-5.5 -0.4,-2.3 -2.3,-2.8 -3.9,-2.8 -1.6,0 -3.6,0.5 -5.2,1.3 -2.8,1.5 -3.8,0.6 -5.7,-1.1 l -0.2,-0.2 c -0.6,-0.6 -1.1,-0.9 -1.6,-0.9 -0.6,0 -1.3,0.6 -2.2,1.4 -1,1 -2,1.4 -3,1.4 -1.2,0 -2.3,-0.7 -3.4,-1.4 -1.2,-0.8 -2.4,-1.6 -3.9,-1.4 -1.4,0.2 -2.1,1.1 -2.9,2.2 -0.8,1 -1.6,2.1 -2.9,2.1 -0.7,0 -1.5,-0.3 -2.4,-0.9 l -0.9,-0.6 c -1.8,-1.2 -3,-2 -4.9,-2 -0.4,0 -0.7,0 -1.1,0.1 -1.6,0.2 -2.7,0.7 -3.5,1.5 -0.4,0.4 -0.7,1 -1,1.5 -0.2,0.4 -0.4,0.8 -0.6,1.1 2.2,3.6 3.5,7.8 3.9,10.4 0.7,4.5 -0.4,7 -1.5,9.4 L 31.7,73 29,52.7 c -1.1,-0.6 -2.1,-1.3 -3,-2 -2.2,-1.6 -4.3,-3 -7.4,-3.3 -1.4,-0.1 -2.8,-0.2 -4.3,-0.2 -1.3,0 -2.4,0.1 -3.4,0.2 -0.6,0.1 -4.7,1.7 -5.5,2.5 2,1.6 4.3,3 6.5,4.3 l 1,0.6 c 2.3,1.4 4.7,2.9 6.8,4.8 4.7,4.1 7.4,10.2 8.2,18.5 0.4,4.4 0.8,9.5 0.1,14.5 -0.7,4.6 -1.7,9.9 -3.7,14.1 l 5.1,-4.6 c 0.5,-0.5 1.2,-1 1.7,-1.4 l 2.7,-2.2 -3.6,5.4 c -0.8,0.7 -1.4,1.3 -2.1,2.3 -0.7,1 -1.7,1.8 -2.5,2.4 -0.8,0.6 -1.8,1 -3.1,1.1 -0.6,0.8 -1.2,1.5 -1.9,2.1 -1.2,1 -2.3,2.1 -3.5,3.2 -1.5,1.4 -3,2.9 -4.6,4.2 0.5,0.2 1.2,0.5 2.3,0.9 0.7,0.3 1.4,0.6 1.6,0.6 2.7,0.8 5,1.2 7.2,1.1 2.4,-0.1 4.3,-1.4 6.2,-2.7 1.1,-0.8 2.2,-1.5 3.5,-2.1 l 5.6,-21.2 v 3.9 c 0,3.8 -0.3,5.5 -0.6,7.4 -0.2,1.2 -0.8,2.7 -1.3,4.1 -0.3,0.7 -0.6,1.4 -0.7,2 -0.3,1 -0.6,1.7 -1.1,2.5 -0.3,0.3 -0.6,0.8 -0.9,1.5 z m 16,-10.1 c 0.3,1.1 0.6,2 1,3.2 0.2,0.4 0.3,0.9 0.5,1.3 0.4,1.2 1,2.6 1.7,4 z m -12.6,-2.9 -1.7,6.5 v -0.1 c 0.5,-1.3 1.1,-2.8 1.3,-3.9 0.2,-0.8 0.3,-1.6 0.4,-2.5 z m -9.5,0.3 -4.1,3.7 c 0.4,-0.1 0.7,-0.3 1,-0.5 0.7,-0.6 1.7,-1.3 2.3,-2.1 0.2,-0.4 0.5,-0.7 0.8,-1.1 z m 2,-50.7 2.1,16.2 c 0.8,-1.9 1.3,-4.1 0.8,-7.5 -0.3,-2.2 -1.2,-5.6 -2.9,-8.7 z m 26.7,58.8 c -0.4,-0.9 -0.6,-1.8 -0.8,-2.7 l -0.2,-0.7 -0.3,-1.2 c 0,-0.1 -0.1,-0.2 -0.1,-0.3 -0.3,-0.8 -0.7,-1.5 -1,-2.1 -0.4,-0.8 -0.9,-1.6 -1.2,-2.5 -1.2,-3.7 -2,-6.8 -2,-10.4 v -3.6 l 5.3,18.8 c 0.1,0.3 0.2,0.7 0.3,1 l 0.9,3.3 z M 45,79.9 47.8,73.7 c 0.3,-1 0.5,-2.3 0.7,-3.6 0.2,-1.4 0.4,-2.7 0.7,-3.5 0.9,-2.4 3,-3.9 4.9,-5.3 1,-0.7 1.9,-1.4 2.7,-2.2 L 59.4,56.6 49.5,74 c -0.4,1.3 -2.2,4.8 -3.3,5.3 z M 55.4,61.7 c -0.2,0.2 -0.5,0.3 -0.7,0.5 -1.9,1.4 -3.7,2.7 -4.6,4.9 -0.3,0.7 -0.5,2 -0.7,3.3 -0.1,0.9 -0.3,1.8 -0.5,2.6 z m 3.2,-2.6 0.7,-2.3 c 0.6,-1.8 2.3,-6.1 5.5,-6.3 L 66,50.4 Z m 4.7,-6.9 c -0.6,0.4 -1.2,1.1 -1.7,1.9 z M 78.5,14.3 C 73,14.4 67,14.7 61.9,17.5 c -2.4,1.3 -4.1,3 -6.3,4.6 -1.1,0.8 -2.3,1.6 -3.6,2.2 -1.3,0.7 -2.9,0.8 -4.1,1.5 l 0.6,1.5 c 1.7,-0.5 2,-0.7 3.7,-0.8 1.7,-0.1 3.3,-0.4 5.1,-0.2 1.7,0.2 3.7,0.1 5.4,0.6 1.9,0.5 4.4,0.5 6.3,0.7 3.9,0.3 8.7,-0.6 12.6,-1.4 2.8,-0.6 6.6,-1.8 8.7,-3.9 0.9,-0.9 1.4,-1.8 2.5,-2.8 1,-1 2.6,-2.9 3.4,-4 0.8,-1.1 1.4,-1.8 2.2,-3 0.6,-1 1.8,-3.2 1.8,-4.5 -5.3,5.9 -14.5,6.2 -21.7,6.3 z"
       id="path4"
       style="fill:#ffffff" />
  </g>
</svg>
